<?xml version="1.0" encoding="UTF-8" standalone="no"?>
<!-- Created with Inkscape (http://www.inkscape.org/) -->

<svg
   xmlns:dc="http://purl.org/dc/elements/1.1/"
   xmlns:cc="http://creativecommons.org/ns#"
   xmlns:rdf="http://www.w3.org/1999/02/22-rdf-syntax-ns#"
   xmlns:svg="http://www.w3.org/2000/svg"
   xmlns="http://www.w3.org/2000/svg"
   xmlns:sodipodi="http://sodipodi.sourceforge.net/DTD/sodipodi-0.dtd"
   xmlns:inkscape="http://www.inkscape.org/namespaces/inkscape"
   width="6in"
   height="4in"
   viewBox="0 0 540.00001 360.00001"
   id="svg2"
   version="1.1"
   inkscape:version="0.91 r13725"
   sodipodi:docname="AWK-106-006A LABEL ARTWORK.svg">
  <defs
     id="defs4">
    <clipPath
       clipPathUnits="userSpaceOnUse"
       id="clipPath4150">
      <path
         d="m 0,0 1224,0 0,792 L 0,792 0,0 Z"
         id="path4152"
         inkscape:connector-curvature="0" />
    </clipPath>
  </defs>
  <sodipodi:namedview
     id="base"
     pagecolor="#ffffff"
     bordercolor="#666666"
     borderopacity="1.0"
     inkscape:pageopacity="0.0"
     inkscape:pageshadow="2"
     inkscape:zoom="0.98994949"
     inkscape:cx="217.80865"
     inkscape:cy="233.03519"
     inkscape:document-units="px"
     inkscape:current-layer="layer1"
     showgrid="false"
     units="in"
     inkscape:window-width="1366"
     inkscape:window-height="705"
     inkscape:window-x="-8"
     inkscape:window-y="-8"
     inkscape:window-maximized="1" />
  <metadata
     id="metadata7">
    <rdf:RDF>
      <cc:Work
         rdf:about="">
        <dc:format>image/svg+xml</dc:format>
        <dc:type
           rdf:resource="http://purl.org/dc/dcmitype/StillImage" />
        <dc:title></dc:title>
      </cc:Work>
    </rdf:RDF>
  </metadata>
  <g
     inkscape:label="Layer 1"
     inkscape:groupmode="layer"
     id="layer1"
     transform="translate(0,-692.36215)">
    <g
       id="g8099"
       transform="matrix(0.92544768,0,0,0.92528829,-44.959452,47.492807)">
      <path
         inkscape:connector-curvature="0"
         id="path4154"
         style="fill:none;stroke:#000000;stroke-width:4.8629303;stroke-linecap:round;stroke-linejoin:round;stroke-miterlimit:4;stroke-dasharray:none;stroke-opacity:1"
         d="m 335.19458,850.55047 -7.93449,-10.89431" />
      <path
         inkscape:connector-curvature="0"
         id="path4156"
         style="fill:none;stroke:#000000;stroke-width:4.8629303;stroke-linecap:round;stroke-linejoin:round;stroke-miterlimit:4;stroke-dasharray:none;stroke-opacity:1"
         d="m 357.30792,850.55047 -22.11334,0" />
      <path
         inkscape:connector-curvature="0"
         id="path4158"
         style="fill:none;stroke:#000000;stroke-width:4.8629303;stroke-linecap:round;stroke-linejoin:round;stroke-miterlimit:4;stroke-dasharray:none;stroke-opacity:1"
         d="m 341.48874,839.65616 15.81918,10.89431" />
      <path
         inkscape:connector-curvature="0"
         id="path4160"
         style="fill:none;stroke:#000000;stroke-width:4.8629303;stroke-linecap:round;stroke-linejoin:round;stroke-miterlimit:4;stroke-dasharray:none;stroke-opacity:1"
         d="m 327.26009,839.65616 14.22865,0" />
      <path
         inkscape:connector-curvature="0"
         id="path4162"
         style="fill:none;stroke:#000000;stroke-width:4.8629303;stroke-linecap:round;stroke-linejoin:round;stroke-miterlimit:4;stroke-dasharray:none;stroke-opacity:1"
         d="m 133.18139,864.86095 -1.96782,1.69998 -1.364,1.79054" />
      <path
         inkscape:connector-curvature="0"
         id="path4164"
         style="fill:none;stroke:#000000;stroke-width:4.8629303;stroke-linecap:round;stroke-linejoin:round;stroke-miterlimit:4;stroke-dasharray:none;stroke-opacity:1"
         d="M 133.18139,864.86095 88.412445,809.30624" />
      <path
         inkscape:connector-curvature="0"
         id="path4166"
         style="fill:none;stroke:#000000;stroke-width:4.8629303;stroke-linecap:round;stroke-linejoin:round;stroke-miterlimit:4;stroke-dasharray:none;stroke-opacity:1"
         d="m 123.79386,806.87162 -1.84808,-1.70099 -1.69523,-1.28626 -1.81215,-0.93054 -2.19882,-0.63382 -2.79615,-0.39051 -3.30328,-0.17195 -3.6247,0.0309 -3.7604,0.21814 -3.710354,0.38969 -3.474564,0.54557 -3.053043,0.68576 -2.445794,0.81032 -1.684549,0.93245 -0.739984,0.82319" />
      <path
         inkscape:connector-curvature="0"
         id="path4168"
         style="fill:none;stroke:#000000;stroke-width:4.8629303;stroke-linecap:round;stroke-linejoin:round;stroke-miterlimit:4;stroke-dasharray:none;stroke-opacity:1"
         d="M 173.54317,854.48758 123.79386,806.87162" />
      <path
         inkscape:connector-curvature="0"
         id="path4170"
         style="fill:none;stroke:#000000;stroke-width:4.8629303;stroke-linecap:round;stroke-linejoin:round;stroke-miterlimit:4;stroke-dasharray:none;stroke-opacity:1"
         d="m 342.2512,875.74295 34.53556,0" />
      <path
         inkscape:connector-curvature="0"
         id="path4172"
         style="fill:none;stroke:#000000;stroke-width:4.8629303;stroke-linecap:round;stroke-linejoin:round;stroke-miterlimit:4;stroke-dasharray:none;stroke-opacity:1"
         d="m 374.92159,872.51365 1.86517,3.2293" />
      <path
         inkscape:connector-curvature="0"
         id="path4174"
         style="fill:none;stroke:#000000;stroke-width:4.8629303;stroke-linecap:round;stroke-linejoin:round;stroke-miterlimit:4;stroke-dasharray:none;stroke-opacity:1"
         d="m 301.86914,872.51365 73.05245,0" />
      <path
         inkscape:connector-curvature="0"
         id="path4176"
         style="fill:none;stroke:#000000;stroke-width:4.8629303;stroke-linecap:round;stroke-linejoin:round;stroke-miterlimit:4;stroke-dasharray:none;stroke-opacity:1"
         d="m 302.02457,872.78276 -0.15543,-0.26911" />
      <path
         inkscape:connector-curvature="0"
         id="path4178"
         style="fill:none;stroke:#000000;stroke-width:4.8629303;stroke-linecap:round;stroke-linejoin:round;stroke-miterlimit:4;stroke-dasharray:none;stroke-opacity:1"
         d="m 443.41716,896.28849 1.12346,-2.23608 1.2842,-4.05178 0.44947,-4.25018 -0.39982,-4.38174 -1.2637,-4.44646 -1.82583,-3.8912 -2.50364,-3.84397 -3.11567,-3.73805 -3.60545,-3.563 -3.97142,-3.31857 -4.21355,-3.00474 -4.33188,-2.62152 -4.32638,-2.16891 -4.504,-1.74768 -4.23068,-1.08971 -4.00644,-0.55995 -3.89302,-0.2236 -3.89048,-0.0807 -3.99884,-0.13139 -4.21807,-0.37553 -5.02233,-0.92051 -5.46195,-1.51899 -5.82406,-1.97973 -6.1015,-2.29029 -5.25328,-2.04438" />
      <path
         inkscape:connector-curvature="0"
         id="path4180"
         style="fill:none;stroke:#000000;stroke-width:4.8629303;stroke-linecap:round;stroke-linejoin:round;stroke-miterlimit:4;stroke-dasharray:none;stroke-opacity:1"
         d="m 360.3123,837.80978 -1.04105,-0.40625 -1.34282,-0.52267" />
      <path
         inkscape:connector-curvature="0"
         id="path4182"
         style="fill:none;stroke:#000000;stroke-width:4.8629303;stroke-linecap:round;stroke-linejoin:round;stroke-miterlimit:4;stroke-dasharray:none;stroke-opacity:1"
         d="m 357.92843,836.88086 -6.83139,-2.59787 -8.17459,-2.8254 -8.00226,-2.22807 -7.71115,-1.504 -7.3487,-0.80761 -6.91654,-0.14418 -6.41469,0.48628 -5.83105,1.08081 -5.22119,1.63282 -4.7926,2.06287 -0.58244,0.27983" />
      <path
         inkscape:connector-curvature="0"
         id="path4184"
         style="fill:none;stroke:#000000;stroke-width:4.8629303;stroke-linecap:round;stroke-linejoin:round;stroke-miterlimit:4;stroke-dasharray:none;stroke-opacity:1"
         d="m 290.10183,832.31634 -4.0671,2.05398 -4.79264,2.44541 -5.12321,2.35622 -5.80834,2.15923 -6.72272,1.83111 -7.5911,1.50204 -9.95122,1.43075 -10.6933,1.12508 -11.16957,0.90683 -11.38005,0.77604 -11.32475,0.73268 -11.00696,0.77611 -7.85185,0.64819 -7.52154,0.73648" />
      <path
         inkscape:connector-curvature="0"
         id="path4186"
         style="fill:none;stroke:#000000;stroke-width:4.8629303;stroke-linecap:round;stroke-linejoin:round;stroke-miterlimit:4;stroke-dasharray:none;stroke-opacity:1"
         d="m 441.86285,898.97958 0.45965,-0.83894" />
      <path
         inkscape:connector-curvature="0"
         id="path4188"
         style="fill:none;stroke:#000000;stroke-width:4.8629303;stroke-linecap:round;stroke-linejoin:round;stroke-miterlimit:4;stroke-dasharray:none;stroke-opacity:1"
         d="m 442.3225,898.14064 0.66382,-1.39714" />
      <path
         inkscape:connector-curvature="0"
         id="path4190"
         style="fill:none;stroke:#000000;stroke-width:4.8629303;stroke-linecap:round;stroke-linejoin:round;stroke-miterlimit:4;stroke-dasharray:none;stroke-opacity:1"
         d="m 442.98632,896.7435 1.28419,-4.05179 0.44948,-4.25017 -0.39983,-4.38174 -1.2637,-4.44647 -1.82583,-3.8912 -2.50364,-3.84397 -3.11567,-3.73804 -3.60545,-3.563 -3.97141,-3.31857 -4.21356,-3.00475 -4.33187,-2.62152 -4.32639,-2.1689 -4.504,-1.74768 -4.23067,-1.08972 -4.00645,-0.55995 -3.89301,-0.2236 -3.89049,-0.0808 -3.99883,-0.13139 -4.21808,-0.37552 -5.02232,-0.92051 -5.46196,-1.51899 -5.82405,-1.97974 -6.10151,-2.29028 -6.29433,-2.45064 -8.1742,-3.12054 -8.17459,-2.82539 -8.00227,-2.22807 -7.71114,-1.504 -7.3487,-0.80761 -6.91655,-0.14419 -6.41469,0.48628 -5.83105,1.08081 -5.22119,1.63282 -4.79259,2.06288 -4.64955,2.33381 -4.79264,2.44541 -5.12321,2.35621 -5.80834,2.15924 -6.72272,1.83111 -7.5911,1.50203 -9.95122,1.43076 -10.69329,1.12507 -11.16958,0.90684 -11.38005,0.77603 -11.32475,0.73268 -11.00696,0.77612 -7.85185,0.64818 -7.52154,0.73649" />
      <path
         inkscape:connector-curvature="0"
         id="path4192"
         style="fill:none;stroke:#000000;stroke-width:4.8629303;stroke-linecap:round;stroke-linejoin:round;stroke-miterlimit:4;stroke-dasharray:none;stroke-opacity:1"
         d="m 129.84957,868.35147 -0.0323,0.0566 -0.75693,1.99923 -0.0496,2.15633 0.78629,2.44587 1.67608,2.61137 2.52653,2.73438 3.332,2.81259 4.0925,2.84603 4.80801,2.83469 6.23157,3.13048 7.02149,2.9945 7.74339,2.80207 8.37819,2.5992 8.91909,2.40235 12.34103,2.8583 12.89666,2.54456 13.24138,2.24434 14.33015,2.08687 5.77193,0.75327" />
      <path
         inkscape:connector-curvature="0"
         id="path4194"
         style="fill:none;stroke:#000000;stroke-width:4.8629303;stroke-linecap:round;stroke-linejoin:round;stroke-miterlimit:4;stroke-dasharray:none;stroke-opacity:1"
         d="m 312.43318,919.05277 9.08879,0.27758 9.15977,0.1444 8.92909,0.016 11.61946,-0.13528 11.87783,-0.26562 12.40462,-0.37653 9.48637,-0.4433 9.4202,-0.67945 9.15327,-1.00404 8.68564,-1.41706 6.36559,-1.46076 5.85559,-1.81324 5.24823,-2.20859 4.54349,-2.64685 3.70093,-3.05555 2.90992,-3.45447 0.98088,-1.55046" />
      <path
         inkscape:connector-curvature="0"
         id="path4196"
         style="fill:none;stroke:#000000;stroke-width:4.8629303;stroke-linecap:round;stroke-linejoin:round;stroke-miterlimit:4;stroke-dasharray:none;stroke-opacity:1"
         d="m 175.09748,851.79649 -1.55431,2.69109" />
      <path
         inkscape:connector-curvature="0"
         id="path4198"
         style="fill:none;stroke:#000000;stroke-width:4.8629303;stroke-linecap:round;stroke-linejoin:round;stroke-miterlimit:4;stroke-dasharray:none;stroke-opacity:1"
         d="m 132.5469,864.10785 -1.14303,1.55254" />
      <path
         inkscape:connector-curvature="0"
         id="path4200"
         style="fill:none;stroke:#000000;stroke-width:4.8629303;stroke-linecap:round;stroke-linejoin:round;stroke-miterlimit:4;stroke-dasharray:none;stroke-opacity:1"
         d="m 336.74889,847.85939 -1.55431,2.69108" />
      <path
         inkscape:connector-curvature="0"
         id="path4202"
         style="fill:none;stroke:#000000;stroke-width:4.8629303;stroke-linecap:round;stroke-linejoin:round;stroke-miterlimit:4;stroke-dasharray:none;stroke-opacity:1"
         d="m 353.40031,847.85939 -16.65142,0" />
      <path
         inkscape:connector-curvature="0"
         id="path4204"
         style="fill:none;stroke:#000000;stroke-width:4.8629303;stroke-linecap:round;stroke-linejoin:round;stroke-miterlimit:4;stroke-dasharray:none;stroke-opacity:1"
         d="m 336.74889,847.85939 -5.97453,-8.20323" />
      <path
         inkscape:connector-curvature="0"
         id="path4206"
         style="fill:none;stroke:#000000;stroke-width:4.8629303;stroke-linecap:round;stroke-linejoin:round;stroke-miterlimit:4;stroke-dasharray:none;stroke-opacity:1"
         d="m 343.8634,873.05187 31.36906,0" />
      <path
         inkscape:connector-curvature="0"
         id="path4208"
         style="fill:none;stroke:#000000;stroke-width:4.8629303;stroke-linecap:round;stroke-linejoin:round;stroke-miterlimit:4;stroke-dasharray:none;stroke-opacity:1"
         d="m 125.34817,804.18053 -1.55431,2.69109" />
      <path
         inkscape:connector-curvature="0"
         id="path4210"
         style="fill:none;stroke:#000000;stroke-width:4.8629303;stroke-linecap:round;stroke-linejoin:round;stroke-miterlimit:4;stroke-dasharray:none;stroke-opacity:1"
         d="M 175.09748,851.79649 125.34817,804.18053" />
      <path
         inkscape:connector-curvature="0"
         id="path4212"
         style="fill:none;stroke:#000000;stroke-width:4.8629303;stroke-linecap:round;stroke-linejoin:round;stroke-miterlimit:4;stroke-dasharray:none;stroke-opacity:1"
         d="m 87.646762,806.1936 -0.124952,0.26896 -0.0048,1.29692 0.895542,1.54676" />
      <path
         inkscape:connector-curvature="0"
         id="path4214"
         style="fill:none;stroke:#000000;stroke-width:4.8629303;stroke-linecap:round;stroke-linejoin:round;stroke-miterlimit:4;stroke-dasharray:none;stroke-opacity:1"
         d="m 125.34817,804.18053 -1.84808,-1.70099 -1.69524,-1.28625 -1.81215,-0.93054 -2.19882,-0.63383 -2.79614,-0.3905 -3.30328,-0.17196 -3.62471,0.0309 -3.7604,0.21815 -3.71035,0.38969 -3.474559,0.54557 -3.053043,0.68576 -2.445795,0.81031 -1.684554,0.93245 -0.739978,0.82319" />
      <path
         inkscape:connector-curvature="0"
         id="path4216"
         style="fill:none;stroke:#000000;stroke-width:4.8629303;stroke-linecap:round;stroke-linejoin:round;stroke-miterlimit:4;stroke-dasharray:none;stroke-opacity:1"
         d="m 131.40533,865.65788 -1.55431,2.69108" />
      <path
         inkscape:connector-curvature="0"
         id="path4218"
         style="fill:none;stroke:#000000;stroke-width:4.8629303;stroke-linecap:round;stroke-linejoin:round;stroke-miterlimit:4;stroke-dasharray:none;stroke-opacity:1"
         d="m 441.85427,898.99446 1.55431,-2.69108" />
      <path
         inkscape:connector-curvature="0"
         id="path4220"
         style="fill:none;stroke:#000000;stroke-width:4.8629303;stroke-linecap:round;stroke-linejoin:round;stroke-miterlimit:4;stroke-dasharray:none;stroke-opacity:1"
         d="m 89.214285,803.47929 -1.554308,2.69108" />
      <path
         inkscape:connector-curvature="0"
         id="path4222"
         style="fill:none;stroke:#000000;stroke-width:4.8629303;stroke-linecap:round;stroke-linejoin:round;stroke-miterlimit:4;stroke-dasharray:none;stroke-opacity:1"
         d="m 302.17999,872.51365 -0.15542,0.26911" />
      <path
         inkscape:connector-curvature="0"
         id="path4224"
         style="fill:none;stroke:#000000;stroke-width:4.8629303;stroke-linecap:round;stroke-linejoin:round;stroke-miterlimit:4;stroke-dasharray:none;stroke-opacity:1"
         d="m 290.10379,832.32788 44.22166,-94.82544" />
      <path
         inkscape:connector-curvature="0"
         id="path4226"
         style="fill:none;stroke:#000000;stroke-width:4.8629303;stroke-linecap:round;stroke-linejoin:round;stroke-miterlimit:4;stroke-dasharray:none;stroke-opacity:1"
         d="m 407.3923,730.8057 0.84019,-1.88795 0.63559,-1.84937 0.24368,-1.75031 -0.33558,-1.59076 -0.13514,-0.26257" />
      <path
         inkscape:connector-curvature="0"
         id="path4228"
         style="fill:none;stroke:#000000;stroke-width:4.8629303;stroke-linecap:round;stroke-linejoin:round;stroke-miterlimit:4;stroke-dasharray:none;stroke-opacity:1"
         d="m 352.80455,847.85939 0.14482,-0.31055" />
      <path
         inkscape:connector-curvature="0"
         id="path4230"
         style="fill:none;stroke:#000000;stroke-width:4.8629303;stroke-linecap:round;stroke-linejoin:round;stroke-miterlimit:4;stroke-dasharray:none;stroke-opacity:1"
         d="M 357.921,836.88806 407.3923,730.8057" />
      <path
         inkscape:connector-curvature="0"
         id="path4232"
         style="fill:none;stroke:#000000;stroke-width:4.8629303;stroke-linecap:round;stroke-linejoin:round;stroke-miterlimit:4;stroke-dasharray:none;stroke-opacity:1"
         d="m 340.92076,872.72686 c 0.0489,-0.071 0.0972,-0.14209 0.14488,-0.21321" />
      <path
         inkscape:connector-curvature="0"
         id="path4234"
         style="fill:none;stroke:#000000;stroke-width:4.8629303;stroke-linecap:round;stroke-linejoin:round;stroke-miterlimit:4;stroke-dasharray:none;stroke-opacity:1"
         d="M 340.92076,872.72686 244.94135,1012.0687" />
      <path
         inkscape:connector-curvature="0"
         id="path4236"
         style="fill:none;stroke:#000000;stroke-width:4.8629303;stroke-linecap:round;stroke-linejoin:round;stroke-miterlimit:4;stroke-dasharray:none;stroke-opacity:1"
         d="m 244.94135,1012.0687 -1.34069,1.888 -1.5007,1.8493 -1.7782,1.7504 -2.17315,1.5907 -2.68557,1.3708 -3.31495,1.0904 -3.98433,0.7747 -4.53577,0.4749 -4.94983,0.1974 -5.22652,-0.058 -5.36584,-0.2913 -5.36779,-0.5024 -5.23238,-0.6912 -4.95958,-0.8578 -4.54943,-1.0024 -4.0019,-1.1246 -3.317,-1.2247 -2.49473,-1.3026 -1.5547,-1.3638 -0.30099,-0.45" />
      <path
         inkscape:connector-curvature="0"
         id="path4238"
         style="fill:none;stroke:#000000;stroke-width:4.8629303;stroke-linecap:round;stroke-linejoin:round;stroke-miterlimit:4;stroke-dasharray:none;stroke-opacity:1"
         d="M 269.09331,875.46145 179.61025,1005.372" />
      <path
         inkscape:connector-curvature="0"
         id="path4240"
         style="fill:none;stroke:#000000;stroke-width:4.8629303;stroke-linecap:round;stroke-linejoin:round;stroke-miterlimit:4;stroke-dasharray:none;stroke-opacity:1"
         d="m 274.39416,872.78276 -5.30085,2.67869" />
      <path
         inkscape:connector-curvature="0"
         id="path4242"
         style="fill:none;stroke:#000000;stroke-width:4.8629303;stroke-linecap:round;stroke-linejoin:round;stroke-miterlimit:4;stroke-dasharray:none;stroke-opacity:1"
         d="m 274.39416,872.78276 27.63041,0" />
      <path
         inkscape:connector-curvature="0"
         id="path4244"
         style="fill:none;stroke:#000000;stroke-width:4.8629303;stroke-linecap:round;stroke-linejoin:round;stroke-miterlimit:4;stroke-dasharray:none;stroke-opacity:1"
         d="m 246.49565,1014.7598 -1.5543,-2.6911" />
      <path
         inkscape:connector-curvature="0"
         id="path4246"
         style="fill:none;stroke:#000000;stroke-width:4.8629303;stroke-linecap:round;stroke-linejoin:round;stroke-miterlimit:4;stroke-dasharray:none;stroke-opacity:1"
         d="m 342.47507,875.41794 -1.55431,-2.69108" />
      <path
         inkscape:connector-curvature="0"
         id="path4248"
         style="fill:none;stroke:#000000;stroke-width:4.8629303;stroke-linecap:round;stroke-linejoin:round;stroke-miterlimit:4;stroke-dasharray:none;stroke-opacity:1"
         d="M 342.47507,875.41794 246.49565,1014.7598" />
      <path
         inkscape:connector-curvature="0"
         id="path4250"
         style="fill:none;stroke:#000000;stroke-width:4.8629303;stroke-linecap:round;stroke-linejoin:round;stroke-miterlimit:4;stroke-dasharray:none;stroke-opacity:1"
         d="m 176.3073,1014.1864 -0.36116,-1.0053 0.10006,-1.6003 0.73135,-1.7991 1.23167,-2.0517 1.60103,-2.358" />
      <path
         inkscape:connector-curvature="0"
         id="path4252"
         style="fill:none;stroke:#000000;stroke-width:4.8629303;stroke-linecap:round;stroke-linejoin:round;stroke-miterlimit:4;stroke-dasharray:none;stroke-opacity:1"
         d="m 246.49565,1014.7598 -1.34068,1.888 -1.50071,1.8493 -1.77819,1.7503 -2.17315,1.5908 -2.68557,1.3707 -3.31495,1.0905 -3.98433,0.7747 -4.53577,0.4749 -4.94983,0.1974 -5.22652,-0.058 -5.36584,-0.2913 -5.3678,-0.5024 -5.23237,-0.6912 -4.95958,-0.8578 -4.54943,-1.0024 -4.0019,-1.1246 -3.317,-1.2247 -2.49473,-1.3026 -1.55471,-1.3639 -0.30099,-0.4499" />
      <path
         inkscape:connector-curvature="0"
         id="path4254"
         style="fill:none;stroke:#000000;stroke-width:4.8629303;stroke-linecap:round;stroke-linejoin:round;stroke-miterlimit:4;stroke-dasharray:none;stroke-opacity:1"
         d="m 343.77709,872.51365 0.18772,0.325" />
      <path
         inkscape:connector-curvature="0"
         id="path4256"
         style="fill:none;stroke:#000000;stroke-width:4.8629303;stroke-linecap:round;stroke-linejoin:round;stroke-miterlimit:4;stroke-dasharray:none;stroke-opacity:1"
         d="m 343.96481,872.83865 c -0.40003,0.85778 -0.8989,1.72151 -1.48974,2.57929" />
      <path
         inkscape:connector-curvature="0"
         id="path4258"
         style="fill:none;stroke:#000000;stroke-width:4.8629303;stroke-linecap:round;stroke-linejoin:round;stroke-miterlimit:4;stroke-dasharray:none;stroke-opacity:1"
         d="M 408.94661,733.49678 407.3923,730.8057" />
      <path
         inkscape:connector-curvature="0"
         id="path4260"
         style="fill:none;stroke:#000000;stroke-width:4.8629303;stroke-linecap:round;stroke-linejoin:round;stroke-miterlimit:4;stroke-dasharray:none;stroke-opacity:1"
         d="m 343.96481,872.83865 0.15156,-0.325" />
      <path
         inkscape:connector-curvature="0"
         id="path4262"
         style="fill:none;stroke:#000000;stroke-width:4.8629303;stroke-linecap:round;stroke-linejoin:round;stroke-miterlimit:4;stroke-dasharray:none;stroke-opacity:1"
         d="M 360.30264,837.80509 408.94661,733.49678" />
      <path
         inkscape:connector-curvature="0"
         id="path4264"
         style="fill:none;stroke:#000000;stroke-width:4.8629303;stroke-linecap:round;stroke-linejoin:round;stroke-miterlimit:4;stroke-dasharray:none;stroke-opacity:1"
         d="m 408.64104,723.46474 -0.96701,-1.10818 -2.05534,-1.09041 -3.08941,-0.77473 -3.98715,-0.47493 -4.72188,-0.19733 -5.29362,0.0581 -5.70234,0.29131 -5.94809,0.50235 -6.03081,0.69119 -5.95053,0.85786 -5.70727,1.00233 -5.301,1.12461 -4.73172,1.2247 -3.99944,1.30261 -3.13018,1.36387 -2.34323,1.45528 -1.74852,1.6003 -1.34689,1.7991 -1.13832,2.05167 -1.12284,2.35802" />
      <path
         inkscape:connector-curvature="0"
         id="path4266"
         style="fill:none;stroke:#000000;stroke-width:4.8629303;stroke-linecap:round;stroke-linejoin:round;stroke-miterlimit:4;stroke-dasharray:none;stroke-opacity:1"
         d="m 408.94661,733.49678 0.84018,-1.88795 0.6356,-1.84937 0.24368,-1.7503 -0.33558,-1.59076 -0.13514,-0.26258" />
      <path
         inkscape:connector-curvature="0"
         id="path4268"
         style="fill:none;stroke:#000000;stroke-width:4.8629303;stroke-linecap:round;stroke-linejoin:round;stroke-miterlimit:4;stroke-dasharray:none;stroke-opacity:1"
         d="m 176.32304,1014.2139 1.55431,2.6911" />
      <path
         inkscape:connector-curvature="0"
         id="path4270"
         style="fill:none;stroke:#000000;stroke-width:4.8629303;stroke-linecap:round;stroke-linejoin:round;stroke-miterlimit:4;stroke-dasharray:none;stroke-opacity:1"
         d="m 410.18613,726.13976 -1.55431,-2.69109" />
    </g>
    <g
       id="g8160"
       transform="translate(-14.777992,0)">
      <flowRoot
         xml:space="preserve"
         id="flowRoot15056-7"
         style="font-style:normal;font-variant:normal;font-weight:normal;font-stretch:normal;font-size:10px;line-height:125%;font-family:'Futura Book';-inkscape-font-specification:'Futura Book';text-align:center;letter-spacing:-3px;word-spacing:0px;text-anchor:middle;fill:#000000;fill-opacity:1;stroke:none"
         transform="matrix(1.0177001,0,0,1.0177001,204.92473,919.99006)"><flowRegion
           id="flowRegion15058-4"><rect
             id="rect15060-3"
             width="317.1879"
             height="63.63961"
             x="16.162441"
             y="19.578592" /></flowRegion><flowPara
           id="flowPara15062-8"
           style="font-size:42px;letter-spacing:4.91303873px">AWK-106</flowPara></flowRoot>      <flowRoot
         transform="translate(182.84232,928.51579)"
         xml:space="preserve"
         id="flowRoot15056-8-8"
         style="font-style:normal;font-variant:normal;font-weight:normal;font-stretch:normal;font-size:12.34613895px;line-height:125%;font-family:'Futura Book';-inkscape-font-specification:'Futura Book';text-align:center;letter-spacing:-3.70384169px;word-spacing:0px;text-anchor:middle;fill:#000000;fill-opacity:1;stroke:none"><flowRegion
           id="flowRegion15058-9-2"><rect
             id="rect15060-1-7"
             width="391.60458"
             height="78.570351"
             x="3.3917429"
             y="-2.9402134" /></flowRegion><flowPara
           id="flowPara15062-3-6"
           style="font-style:normal;font-variant:normal;font-weight:bold;font-stretch:normal;font-size:14.81536674px;font-family:'Futura Medium';-inkscape-font-specification:'Futura Medium, Bold';letter-spacing:4.93845558px">MODEL</flowPara></flowRoot>      <flowRoot
         xml:space="preserve"
         id="flowRoot15095-4"
         style="font-style:normal;font-variant:normal;font-weight:normal;font-stretch:normal;font-size:10px;line-height:125%;font-family:'Lobster Two';-inkscape-font-specification:'Lobster Two';text-align:center;letter-spacing:-3px;word-spacing:0px;text-anchor:middle;fill:#000000;fill-opacity:1;stroke:none"
         transform="matrix(1.0177001,0,0,1.0177001,137.69631,913.08589)"><flowRegion
           id="flowRegion15097-6"><rect
             id="rect15099-3"
             width="321.22852"
             height="91.923882"
             x="77.781746"
             y="73.116676"
             style="font-family:'Lobster Two';-inkscape-font-specification:'Lobster Two'" /></flowRegion><flowPara
           id="flowPara15101-9"
           style="font-style:oblique;font-weight:bold;font-size:24px;-inkscape-font-specification:'Lobster Two Bold Oblique';letter-spacing:0px">&quot;Xander's Flying Fun Plane&quot;</flowPara></flowRoot>      <flowRoot
         transform="matrix(1.2346139,0,0,1.2346139,167.00746,993.0559)"
         xml:space="preserve"
         id="flowRoot15056-8-44-0"
         style="font-style:normal;font-variant:normal;font-weight:normal;font-stretch:normal;font-size:10px;line-height:125%;font-family:'Futura Book';-inkscape-font-specification:'Futura Book';text-align:center;letter-spacing:-3px;word-spacing:0px;text-anchor:middle;fill:#000000;fill-opacity:1;stroke:none"><flowRegion
           id="flowRegion15058-9-4-8"><rect
             id="rect15060-1-44-0"
             width="317.1879"
             height="63.63961"
             x="16.162441"
             y="19.578592" /></flowRegion><flowPara
           id="flowPara15062-3-2-5"
           style="font-style:normal;font-variant:normal;font-weight:bold;font-stretch:normal;font-size:12px;font-family:'Futura Medium';-inkscape-font-specification:'Futura Medium, Bold';letter-spacing:1px">www.awkwardengineer.com</flowPara></flowRoot>    </g>
    <flowRoot
       style="font-style:normal;font-variant:normal;font-weight:normal;font-stretch:normal;font-size:12.34613895px;line-height:125%;font-family:'Futura Book';-inkscape-font-specification:'Futura Book';text-align:center;letter-spacing:-3.70384169px;word-spacing:0px;text-anchor:middle;fill:#000000;fill-opacity:1;stroke:none"
       id="flowRoot15056-8-9-1"
       xml:space="preserve"
       transform="translate(880.02869,347.35416)"><flowRegion
         id="flowRegion15058-9-3-9"><rect
           y="483.86243"
           x="-599.60376"
           height="78.570351"
           width="391.60458"
           id="rect15060-1-0-9" /></flowRegion><flowPara
         style="font-style:normal;font-variant:normal;font-weight:bold;font-stretch:normal;font-size:14.81536674px;line-height:100%;font-family:'Futura Medium';-inkscape-font-specification:'Futura Medium, Bold';letter-spacing:4.93845558px"
         id="flowPara15062-3-7-7">Made</flowPara><flowPara
         id="flowPara7983-3"
         style="font-style:normal;font-variant:normal;font-weight:bold;font-stretch:normal;font-size:14.81536674px;line-height:100%;font-family:'Futura Medium';-inkscape-font-specification:'Futura Medium, Bold';letter-spacing:4.93845558px">in the</flowPara><flowPara
         id="flowPara7985-0"
         style="font-style:normal;font-variant:normal;font-weight:bold;font-stretch:normal;font-size:14.81536674px;line-height:100%;font-family:'Futura Medium';-inkscape-font-specification:'Futura Medium, Bold';letter-spacing:4.93845558px">USA</flowPara></flowRoot>    <g
       id="g7967"
       transform="translate(22.628014,-168.66063)">
      <flowRoot
         transform="matrix(0.22061985,0,0,0.22061985,411.51599,887.6914)"
         style="font-style:normal;font-variant:normal;font-weight:normal;font-stretch:normal;font-size:12px;line-height:125%;font-family:GothicI;-inkscape-font-specification:GothicI;letter-spacing:0px;word-spacing:0px;fill:#000000;fill-opacity:1;stroke:none"
         id="flowRoot3486-4-1-5-2-8-7"
         xml:space="preserve"><flowRegion
           id="flowRegion3488-0-8-5-8-7-0"><rect
             y="82.822304"
             x="17.172594"
             height="172.73608"
             width="463.66"
             id="rect3490-9-2-4-1-3-4" /></flowRegion><flowPara
           style="font-style:oblique;font-variant:normal;font-weight:bold;font-stretch:normal;font-size:90px;font-family:'Lobster Two';-inkscape-font-specification:'Lobster Two Bold Oblique'"
           id="flowPara3492-4-1-0-0-0-4">Engineer</flowPara></flowRoot>      <flowRoot
         transform="matrix(0.21381707,0.0543634,-0.0543634,0.21381707,412.75545,900.185)"
         style="font-style:normal;font-variant:normal;font-weight:normal;font-stretch:normal;font-size:12px;line-height:125%;font-family:GothicI;-inkscape-font-specification:GothicI;letter-spacing:0px;word-spacing:0px;fill:#000000;fill-opacity:1;stroke:none"
         id="flowRoot3494-8-9-6-1-8-9"
         xml:space="preserve"><flowRegion
           id="flowRegion3496-2-7-0-5-2-7"><rect
             style="fill:#000000"
             y="-16.172646"
             x="61.619305"
             height="92.934029"
             width="392.94934"
             id="rect3498-4-6-6-5-5-3" /></flowRegion><flowPara
           style="font-style:normal;font-variant:normal;font-weight:normal;font-stretch:normal;font-size:32px;font-family:'Futura Medium';-inkscape-font-specification:'Futura Medium, ';letter-spacing:10px;fill:#000000"
           id="flowPara3500-5-2-1-2-2-9">AWKWARD</flowPara></flowRoot>      <rect
         transform="matrix(0.96916514,0.24641211,-0.24641211,0.96916514,0,0)"
         y="765.93091"
         x="632.97888"
         height="10.808696"
         width="53.709187"
         id="rect3502-5-9-1-2-0-7"
         style="fill:none;stroke:#000000;stroke-width:0.32173717;stroke-miterlimit:4;stroke-dasharray:none" />
    </g>
  </g>
</svg>
